<svg width="18" height="18" viewBox="0 0 18 18" fill="none" xmlns="http://www.w3.org/2000/svg">
<circle cx="9" cy="9" r="9" fill="#93221D"/>
<path d="M8.28571 9.71429H4.71429C4.51191 9.71429 4.34238 9.64571 4.20572 9.50857C4.06905 9.37143 4.00048 9.2019 4 9C3.99953 8.7981 4.0681 8.62857 4.20572 8.49143C4.34334 8.35429 4.51286 8.28571 4.71429 8.28571H8.28571V4.71429C8.28571 4.51191 8.35429 4.34238 8.49143 4.20572C8.62857 4.06905 8.7981 4.00048 9 4C9.2019 3.99953 9.37167 4.0681 9.50929 4.20572C9.6469 4.34334 9.71524 4.51286 9.71429 4.71429V8.28571H13.2857C13.4881 8.28571 13.6579 8.35429 13.795 8.49143C13.9321 8.62857 14.0005 8.7981 14 9C13.9995 9.2019 13.931 9.37167 13.7943 9.50929C13.6576 9.6469 13.4881 9.71524 13.2857 9.71429H9.71429V13.2857C9.71429 13.4881 9.64571 13.6579 9.50857 13.795C9.37143 13.9321 9.2019 14.0005 9 14C8.7981 13.9995 8.62857 13.931 8.49143 13.7943C8.35429 13.6576 8.28571 13.4881 8.28571 13.2857V9.71429Z" fill="white"/>
</svg>
