<svg width="11" height="17" viewBox="0 0 11 17" fill="none" xmlns="http://www.w3.org/2000/svg">
<path d="M9.80825 14.7548C10.0064 14.9529 10.1177 15.2216 10.1177 15.5018C10.1177 15.782 10.0064 16.0508 9.80825 16.2489C9.61012 16.447 9.34139 16.5583 9.06118 16.5583C8.78098 16.5583 8.51225 16.447 8.31411 16.2489L1.28286 9.21765C1.18454 9.11967 1.10652 9.00324 1.05329 8.87504C1.00006 8.74684 0.972656 8.60939 0.972656 8.47058C0.972656 8.33177 1.00006 8.19432 1.05329 8.06612C1.10652 7.93792 1.18454 7.82149 1.28286 7.72351L8.31411 0.692259C8.51225 0.494124 8.78098 0.382812 9.06118 0.382813C9.34139 0.382813 9.61012 0.494124 9.80825 0.692259C10.0064 0.890395 10.1177 1.15912 10.1177 1.43933C10.1177 1.71953 10.0064 1.98826 9.80825 2.1864L3.52495 8.4697L9.80825 14.7548Z" fill="black"/>
</svg>
