<svg width="15" height="16" viewBox="0 0 15 16" fill="none" xmlns="http://www.w3.org/2000/svg">
<path d="M14.6427 13.2804C14.8331 13.4782 14.94 13.7464 14.94 14.0261C14.94 14.3058 14.8331 14.5741 14.6427 14.7719C14.4524 14.9697 14.1943 15.0808 13.9251 15.0808C13.6559 15.0808 13.3977 14.9697 13.2074 14.7719L7.84683 9.19981L2.48456 14.7701C2.29422 14.9679 2.03607 15.079 1.76689 15.079C1.49771 15.079 1.23956 14.9679 1.04922 14.7701C0.858884 14.5723 0.751953 14.3041 0.751953 14.0244C0.751953 13.7447 0.858884 13.4764 1.04922 13.2786L6.41149 7.70831L1.05091 2.13624C0.860572 1.93845 0.753642 1.6702 0.753642 1.39049C0.753642 1.11078 0.860572 0.842523 1.05091 0.644738C1.24125 0.446953 1.4994 0.335838 1.76858 0.335838C2.03776 0.335838 2.29591 0.446953 2.48625 0.644738L7.84683 6.21681L13.2091 0.64386C13.3994 0.446075 13.6576 0.334961 13.9268 0.334961C14.1959 0.334961 14.4541 0.446075 14.6444 0.64386C14.8348 0.841646 14.9417 1.1099 14.9417 1.38961C14.9417 1.66932 14.8348 1.93758 14.6444 2.13536L9.28217 7.70831L14.6427 13.2804Z" fill="#C9C9C9"/>
</svg>
