<svg width="24" height="24" viewBox="0 0 24 24" fill="none" xmlns="http://www.w3.org/2000/svg">
<path d="M1.22408e-05 12C1.22408e-05 5.373 5.37301 0 12 0C18.627 0 24 5.373 24 12C24 18.627 18.627 24 12 24C10.0341 24.0028 8.09792 23.5205 6.36301 22.596L1.59301 23.953C1.37889 24.0138 1.1524 24.0164 0.936967 23.9604C0.721529 23.9044 0.524954 23.7919 0.367554 23.6345C0.210154 23.4771 0.097641 23.2805 0.0416408 23.065C-0.0143593 22.8496 -0.0118144 22.6231 0.0490123 22.409L1.40501 17.639C0.479801 15.9036 -0.00280234 13.9666 1.22408e-05 12ZM7.50001 9.75C7.50001 10.164 7.83601 10.5 8.25001 10.5H15.75C15.9489 10.5 16.1397 10.421 16.2803 10.2803C16.421 10.1397 16.5 9.94891 16.5 9.75C16.5 9.55109 16.421 9.36032 16.2803 9.21967C16.1397 9.07902 15.9489 9 15.75 9H8.25001C8.0511 9 7.86033 9.07902 7.71968 9.21967C7.57903 9.36032 7.50001 9.55109 7.50001 9.75ZM8.25001 13.5C8.0511 13.5 7.86033 13.579 7.71968 13.7197C7.57903 13.8603 7.50001 14.0511 7.50001 14.25C7.50001 14.4489 7.57903 14.6397 7.71968 14.7803C7.86033 14.921 8.0511 15 8.25001 15H12.75C12.9489 15 13.1397 14.921 13.2803 14.7803C13.421 14.6397 13.5 14.4489 13.5 14.25C13.5 14.0511 13.421 13.8603 13.2803 13.7197C13.1397 13.579 12.9489 13.5 12.75 13.5H8.25001Z" fill="black"/>
</svg>
