<svg width="9" height="7" viewBox="0 0 9 7" fill="none" xmlns="http://www.w3.org/2000/svg">
<path d="M1.38684 0.0677461L8.04071 0.00596884C8.22286 0.00427768 8.3762 0.0623134 8.50074 0.180076C8.62528 0.297838 8.68807 0.435993 8.68911 0.594542C8.68957 0.644087 8.68213 0.696282 8.66678 0.751127C8.65143 0.805972 8.62769 0.85812 8.59558 0.907571L5.31363 5.78398C5.25017 5.87375 5.17043 5.94149 5.07441 5.98717C4.9784 6.03285 4.87681 6.05599 4.76966 6.05659C4.66251 6.05719 4.56051 6.03594 4.46367 5.99284C4.36683 5.94974 4.28585 5.8835 4.22072 5.79412L0.848803 0.979496C0.816199 0.930249 0.791501 0.87855 0.77471 0.8244C0.757919 0.77025 0.749508 0.718202 0.749473 0.668257C0.748001 0.509712 0.80843 0.370413 0.93076 0.250359C1.05309 0.130304 1.20512 0.0694333 1.38684 0.0677461Z" fill="#93221D"/>
</svg>
