<svg width="25" height="25" viewBox="0 0 25 25" fill="none" xmlns="http://www.w3.org/2000/svg">
<g clip-path="url(#clip0_549_265)">
<path d="M10.6387 22.2227C10.6996 22.6628 10.9177 23.0661 11.2528 23.358C11.5878 23.6499 12.0172 23.8107 12.4616 23.8107C12.906 23.8107 13.3353 23.6499 13.6704 23.358C14.0055 23.0661 14.2236 22.6628 14.2845 22.2227H10.6387Z" fill="black"/>
<path d="M22.8116 19.5345L22.5755 19.3262C21.9059 18.7292 21.3196 18.0448 20.8325 17.2915C20.3002 16.2518 19.9814 15.116 19.895 13.9512V10.5206C19.8996 8.69118 19.236 6.92303 18.0288 5.54838C16.8217 4.17372 15.1541 3.28719 13.3394 3.05534V2.15951C13.3394 1.91363 13.2417 1.67782 13.0679 1.50396C12.894 1.3301 12.6582 1.23242 12.4123 1.23242C12.1664 1.23242 11.9306 1.3301 11.7568 1.50396C11.5829 1.67782 11.4852 1.91363 11.4852 2.15951V3.06923C9.68681 3.31779 8.03939 4.20968 6.84811 5.57972C5.65683 6.94975 5.00242 8.70509 5.00608 10.5206V13.9512C4.91966 15.116 4.60089 16.2518 4.06858 17.2915C3.59002 18.0431 3.01316 18.7274 2.3533 19.3262L2.11719 19.5345V21.4928H22.8116V19.5345Z" fill="black"/>
<ellipse cx="14.7857" cy="6.58845" rx="6.78571" ry="6.78571" fill="#93221D"/>
<path d="M13.2648 10C13.1382 10 13.0382 9.96333 12.9648 9.89C12.8915 9.81667 12.8548 9.72 12.8548 9.6C12.8548 9.47333 12.8915 9.37667 12.9648 9.31C13.0382 9.24333 13.1382 9.21 13.2648 9.21H14.5248V3.72H15.0048L13.5448 4.66C13.4515 4.72 13.3615 4.74667 13.2748 4.74C13.1948 4.72667 13.1248 4.69333 13.0648 4.64C13.0048 4.58 12.9648 4.51 12.9448 4.43C12.9248 4.35 12.9282 4.27 12.9548 4.19C12.9882 4.10333 13.0548 4.03333 13.1548 3.98L14.5348 3.08C14.6348 3.02 14.7282 2.97333 14.8148 2.94C14.9082 2.9 14.9982 2.88 15.0848 2.88C15.1848 2.88 15.2715 2.91 15.3448 2.97C15.4182 3.03 15.4548 3.12667 15.4548 3.26V9.21H16.6148C16.7482 9.21 16.8482 9.24333 16.9148 9.31C16.9882 9.37667 17.0248 9.47333 17.0248 9.6C17.0248 9.72667 16.9882 9.82667 16.9148 9.9C16.8482 9.96667 16.7482 10 16.6148 10H13.2648Z" fill="white"/>
</g>
<defs>
<clipPath id="clip0_549_265">
<rect width="25" height="25" fill="white"/>
</clipPath>
</defs>
</svg>
