<svg width="196" height="195" viewBox="0 0 196 195" fill="none" xmlns="http://www.w3.org/2000/svg">
<mask id="mask0_858_180" style="mask-type:alpha" maskUnits="userSpaceOnUse" x="0" y="0" width="196" height="195">
<circle cx="98.1097" cy="97.3324" r="97.3324" fill="#DADADA"/>
</mask>
<g mask="url(#mask0_858_180)">
<g clip-path="url(#clip0_858_180)">
<path d="M100.931 178.584H39.0284C33.0453 178.584 28.1953 173.733 28.1953 167.751V156.917H111.337L100.931 178.584Z" fill="#D3DCFB"/>
<path d="M169.041 91.916V137.429V167.75H39.0284C33.0453 167.75 28.1953 162.9 28.1953 156.917V91.916L104.035 64.832L169.041 91.916Z" fill="#EBF5FC"/>
<path d="M47.3275 113.583H41.5723C40.1701 113.583 39.0332 112.447 39.0332 111.044V105.289C39.0332 103.887 40.1701 102.75 41.5723 102.75H47.3275C48.7297 102.75 49.8666 103.887 49.8666 105.289V111.044C49.8666 112.447 48.7297 113.583 47.3275 113.583Z" fill="#3C58A0"/>
<path d="M68.9955 113.583H63.2403C61.8381 113.583 60.7012 112.447 60.7012 111.044V105.289C60.7012 103.887 61.8381 102.75 63.2403 102.75H68.9955C70.3977 102.75 71.5346 103.887 71.5346 105.289V111.044C71.5346 112.447 70.3977 113.583 68.9955 113.583Z" fill="#3C58A0"/>
<path d="M90.6615 113.583H84.9063C83.5041 113.583 82.3672 112.447 82.3672 111.044V105.289C82.3672 103.887 83.5041 102.75 84.9063 102.75H90.6615C92.0637 102.75 93.2006 103.887 93.2006 105.289V111.044C93.2006 112.447 92.064 113.583 90.6615 113.583Z" fill="#3C58A0"/>
<path d="M112.329 113.583H106.574C105.172 113.583 104.035 112.447 104.035 111.044V105.289C104.035 103.887 105.172 102.75 106.574 102.75H112.329C113.732 102.75 114.869 103.887 114.869 105.289V111.044C114.869 112.447 113.732 113.583 112.329 113.583Z" fill="#3C58A0"/>
<path d="M133.992 113.583H128.236C126.834 113.583 125.697 112.447 125.697 111.044V105.289C125.697 103.887 126.834 102.75 128.236 102.75H133.992C135.394 102.75 136.531 103.887 136.531 105.289V111.044C136.531 112.447 135.394 113.583 133.992 113.583Z" fill="#3C58A0"/>
<path d="M155.66 113.583H149.904C148.502 113.583 147.365 112.447 147.365 111.044V105.289C147.365 103.887 148.502 102.75 149.904 102.75H155.66C157.062 102.75 158.199 103.887 158.199 105.289V111.044C158.199 112.447 157.062 113.583 155.66 113.583Z" fill="#3C58A0"/>
<path d="M47.3275 135.25H41.5723C40.1701 135.25 39.0332 134.114 39.0332 132.711V126.956C39.0332 125.554 40.1701 124.417 41.5723 124.417H47.3275C48.7297 124.417 49.8666 125.554 49.8666 126.956V132.711C49.8666 134.114 48.7297 135.25 47.3275 135.25Z" fill="#3C58A0"/>
<path d="M68.9955 135.25H63.2403C61.8381 135.25 60.7012 134.114 60.7012 132.711V126.956C60.7012 125.554 61.8381 124.417 63.2403 124.417H68.9955C70.3977 124.417 71.5346 125.554 71.5346 126.956V132.711C71.5346 134.114 70.3977 135.25 68.9955 135.25Z" fill="#3C58A0"/>
<path d="M90.6615 135.25H84.9063C83.5041 135.25 82.3672 134.114 82.3672 132.711V126.956C82.3672 125.554 83.5041 124.417 84.9063 124.417H90.6615C92.0637 124.417 93.2006 125.554 93.2006 126.956V132.711C93.2006 134.114 92.064 135.25 90.6615 135.25Z" fill="#3C58A0"/>
<path d="M114.869 135.25V127.125C114.869 125.629 113.656 124.417 112.16 124.417H106.743C105.248 124.417 104.035 125.629 104.035 127.125V132.542C104.035 134.038 105.248 135.25 106.743 135.25H114.869Z" fill="#3C58A0"/>
<path d="M47.3275 156.917H41.5723C40.1701 156.917 39.0332 155.781 39.0332 154.378V148.623C39.0332 147.221 40.1701 146.084 41.5723 146.084H47.3275C48.7297 146.084 49.8666 147.221 49.8666 148.623V154.378C49.8666 155.781 48.7297 156.917 47.3275 156.917Z" fill="#3C58A0"/>
<path d="M68.9955 156.917H63.2403C61.8381 156.917 60.7012 155.781 60.7012 154.378V148.623C60.7012 147.221 61.8381 146.084 63.2403 146.084H68.9955C70.3977 146.084 71.5346 147.221 71.5346 148.623V154.378C71.5346 155.781 70.3977 156.917 68.9955 156.917Z" fill="#3C58A0"/>
<path d="M90.6615 156.917H84.9063C83.5041 156.917 82.3672 155.781 82.3672 154.378V148.623C82.3672 147.221 83.5041 146.084 84.9063 146.084H90.6615C92.0637 146.084 93.2006 147.221 93.2006 148.623V154.378C93.2006 155.781 92.064 156.917 90.6615 156.917Z" fill="#3C58A0"/>
<path d="M155.583 102.749H149.981C149.642 102.749 149.319 102.816 149.021 102.933C149.991 103.316 150.678 104.259 150.678 105.365V110.967C150.678 112.072 149.991 113.016 149.021 113.398C149.319 113.516 149.642 113.582 149.981 113.582H155.583C157.027 113.582 158.198 112.411 158.198 110.967V105.365C158.198 103.92 157.027 102.749 155.583 102.749Z" fill="#2A428C"/>
<path d="M133.915 102.749H128.313C127.974 102.749 127.651 102.816 127.354 102.933C128.323 103.316 129.01 104.259 129.01 105.365V110.967C129.01 112.072 128.323 113.016 127.354 113.398C127.651 113.516 127.974 113.582 128.313 113.582H133.915C135.359 113.582 136.53 112.411 136.53 110.967V105.365C136.53 103.92 135.359 102.749 133.915 102.749Z" fill="#2A428C"/>
<path d="M112.251 102.749H106.649C106.31 102.749 105.987 102.816 105.689 102.933C106.659 103.316 107.346 104.259 107.346 105.365V110.967C107.346 112.072 106.659 113.016 105.689 113.398C105.987 113.516 106.31 113.582 106.649 113.582H112.251C113.695 113.582 114.866 112.411 114.866 110.967V105.365C114.866 103.92 113.695 102.749 112.251 102.749Z" fill="#2A428C"/>
<path d="M90.5845 102.749H84.9826C84.6436 102.749 84.3208 102.816 84.0234 102.933C84.9931 103.316 85.6802 104.259 85.6802 105.365V110.967C85.6802 112.072 84.9931 113.016 84.0234 113.398C84.3208 113.516 84.6436 113.582 84.9826 113.582H90.5845C92.0292 113.582 93.2004 112.411 93.2004 110.967V105.365C93.2001 103.92 92.0292 102.749 90.5845 102.749Z" fill="#2A428C"/>
<path d="M68.9165 102.749H63.3146C62.9756 102.749 62.6529 102.816 62.3555 102.933C63.3251 103.316 64.0119 104.259 64.0119 105.365V110.967C64.0119 112.072 63.3248 113.016 62.3555 113.398C62.6529 113.516 62.9756 113.582 63.3146 113.582H68.9165C70.3613 113.582 71.5324 112.411 71.5324 110.967V105.365C71.5324 103.92 70.3613 102.749 68.9165 102.749Z" fill="#2A428C"/>
<path d="M47.2505 102.749H41.6486C41.3096 102.749 40.9868 102.816 40.6895 102.933C41.6591 103.316 42.3462 104.259 42.3462 105.365V110.967C42.3462 112.072 41.6591 113.016 40.6895 113.398C40.9868 113.516 41.3096 113.582 41.6486 113.582H47.2505C48.6952 113.582 49.8664 112.411 49.8664 110.967V105.365C49.8661 103.92 48.6949 102.749 47.2505 102.749Z" fill="#2A428C"/>
<path d="M47.2505 124.416H41.6486C41.3096 124.416 40.9868 124.483 40.6895 124.6C41.6591 124.983 42.3462 125.926 42.3462 127.032V132.634C42.3462 133.74 41.6591 134.683 40.6895 135.066C40.9868 135.183 41.3096 135.25 41.6486 135.25H47.2505C48.6952 135.25 49.8664 134.079 49.8664 132.634V127.032C49.8661 125.587 48.6949 124.416 47.2505 124.416Z" fill="#2A428C"/>
<path d="M47.2505 146.084H41.6486C41.3096 146.084 40.9868 146.151 40.6895 146.268C41.6591 146.651 42.3462 147.594 42.3462 148.7V154.302C42.3462 155.408 41.6591 156.351 40.6895 156.734C40.9868 156.851 41.3096 156.918 41.6486 156.918H47.2505C48.6952 156.918 49.8664 155.747 49.8664 154.302V148.7C49.8661 147.255 48.6949 146.084 47.2505 146.084Z" fill="#2A428C"/>
<path d="M68.9165 124.416H63.3146C62.9756 124.416 62.6529 124.483 62.3555 124.6C63.3251 124.983 64.0119 125.926 64.0119 127.032V132.634C64.0119 133.74 63.3248 134.683 62.3555 135.066C62.6529 135.183 62.9756 135.25 63.3146 135.25H68.9165C70.3613 135.25 71.5324 134.079 71.5324 132.634V127.032C71.5324 125.587 70.3613 124.416 68.9165 124.416Z" fill="#2A428C"/>
<path d="M68.9165 146.084H63.3146C62.9756 146.084 62.6529 146.151 62.3555 146.268C63.3251 146.651 64.0119 147.594 64.0119 148.7V154.302C64.0119 155.408 63.3248 156.351 62.3555 156.734C62.6529 156.851 62.9756 156.918 63.3146 156.918H68.9165C70.3613 156.918 71.5324 155.747 71.5324 154.302V148.7C71.5324 147.255 70.3613 146.084 68.9165 146.084Z" fill="#2A428C"/>
<path d="M90.5845 124.416H84.9826C84.6436 124.416 84.3208 124.483 84.0234 124.6C84.9931 124.983 85.6802 125.926 85.6802 127.032V132.634C85.6802 133.74 84.9931 134.683 84.0234 135.066C84.3208 135.183 84.6436 135.25 84.9826 135.25H90.5845C92.0292 135.25 93.2004 134.079 93.2004 132.634V127.032C93.2001 125.587 92.0292 124.416 90.5845 124.416Z" fill="#2A428C"/>
<path d="M114.866 135.249V127.032C114.866 125.587 113.695 124.416 112.251 124.416H106.649C106.31 124.416 105.987 124.483 105.689 124.6C106.659 124.983 107.346 125.926 107.346 127.032V132.634C107.346 133.74 106.659 134.683 105.689 135.066C105.987 135.183 106.31 135.25 106.649 135.25H114.866V135.249Z" fill="#2A428C"/>
<path d="M90.5845 146.084H84.9826C84.6436 146.084 84.3208 146.151 84.0234 146.268C84.9931 146.651 85.6802 147.594 85.6802 148.7V154.302C85.6802 155.408 84.9931 156.351 84.0234 156.734C84.3208 156.851 84.6436 156.918 84.9826 156.918H90.5845C92.0292 156.918 93.2004 155.747 93.2004 154.302V148.7C93.2001 147.255 92.0292 146.084 90.5845 146.084Z" fill="#2A428C"/>
<path d="M161.516 88.7803V137.429V167.75H169.041V137.429V91.9158L161.516 88.7803Z" fill="#D3DCFB"/>
<path d="M169.041 91.9161V64.8321C169.041 58.849 164.191 53.999 158.208 53.999H39.0284C33.0453 53.999 28.1953 58.849 28.1953 64.8321V91.9161H169.041Z" fill="#FF4155"/>
<path d="M62.3317 67.2842H55.2803C53.9257 67.2842 52.8281 66.1863 52.8281 64.832C52.8281 63.4777 53.926 62.3799 55.2803 62.3799H62.3317C63.6863 62.3799 64.7838 63.4777 64.7838 64.832C64.7838 66.1863 63.686 67.2842 62.3317 67.2842Z" fill="#E80054"/>
<path d="M79.6559 67.2842H72.6045C71.2499 67.2842 70.1523 66.1863 70.1523 64.832C70.1523 63.4777 71.2502 62.3799 72.6045 62.3799H79.6559C81.0105 62.3799 82.108 63.4777 82.108 64.832C82.108 66.1863 81.0105 67.2842 79.6559 67.2842Z" fill="#E80054"/>
<path d="M124.629 67.2842H117.577C116.223 67.2842 115.125 66.1863 115.125 64.832C115.125 63.4777 116.223 62.3799 117.577 62.3799H124.629C125.983 62.3799 127.081 63.4777 127.081 64.832C127.081 66.1863 125.983 67.2842 124.629 67.2842Z" fill="#E80054"/>
<path d="M141.951 67.2842H134.899C133.545 67.2842 132.447 66.1863 132.447 64.832C132.447 63.4777 133.545 62.3799 134.899 62.3799H141.951C143.306 62.3799 144.403 63.4777 144.403 64.832C144.403 66.1863 143.305 67.2842 141.951 67.2842Z" fill="#E80054"/>
<path d="M74.237 63.4779C74.237 67.2174 71.2056 70.2487 67.4662 70.2487C63.7267 70.2487 60.6953 67.2174 60.6953 63.4779V49.9359C60.695 46.1964 63.7264 43.165 67.4658 43.165C71.2053 43.165 74.2367 46.1964 74.2367 49.9359V63.4779H74.237Z" fill="#EBF5FC"/>
<path d="M136.534 63.4779C136.534 67.2174 133.503 70.2487 129.763 70.2487C126.024 70.2487 122.992 67.2174 122.992 63.4779V49.9359C122.992 46.1964 126.024 43.165 129.763 43.165C133.503 43.165 136.534 46.1964 136.534 49.9359V63.4779H136.534Z" fill="#EBF5FC"/>
<path d="M129.762 43.165C128.372 43.165 127.081 43.5853 126.006 44.3038C127.823 45.5182 129.02 47.5866 129.02 49.9362V63.4779C129.02 65.8272 127.823 67.8959 126.006 69.1103C127.081 69.8285 128.372 70.249 129.762 70.249C133.502 70.249 136.533 67.2177 136.533 63.4782V49.9359C136.534 46.1964 133.502 43.165 129.762 43.165V43.165Z" fill="#D3DCFB"/>
<path d="M67.4675 43.165C66.0774 43.165 64.7862 43.5853 63.7109 44.3038C65.528 45.5182 66.7255 47.5866 66.7255 49.9362V63.4779C66.7255 65.8272 65.528 67.8959 63.7109 69.1103C64.7859 69.8285 66.0774 70.249 67.4675 70.249C71.207 70.249 74.2384 67.2177 74.2384 63.4782V49.9359C74.2387 46.1964 71.2073 43.165 67.4675 43.165V43.165Z" fill="#D3DCFB"/>
<path d="M158.209 53.998H150.686C156.669 53.998 161.519 58.8481 161.519 64.8311V91.9155H169.041V64.8315C169.042 58.8484 164.191 53.998 158.209 53.998Z" fill="#E80054"/>
<path d="M28.1953 78.6299H169.042V83.5345H28.1953V78.6299Z" fill="#E80054"/>
<path d="M139.245 205.667C161.682 205.667 179.871 187.479 179.871 165.042C179.871 142.605 161.682 124.416 139.245 124.416C116.808 124.416 98.6191 142.605 98.6191 165.042C98.6191 187.479 116.808 205.667 139.245 205.667Z" fill="#4FABF7"/>
<path d="M139.243 194.835C155.697 194.835 169.036 181.496 169.036 165.042C169.036 148.588 155.697 135.25 139.243 135.25C122.79 135.25 109.451 148.588 109.451 165.042C109.451 181.496 122.79 194.835 139.243 194.835Z" fill="#EBF5FC"/>
<path d="M139.245 162.077C137.89 162.077 136.793 160.979 136.793 159.625V146.083C136.793 144.729 137.891 143.631 139.245 143.631C140.6 143.631 141.697 144.729 141.697 146.083V159.625C141.697 160.979 140.599 162.077 139.245 162.077Z" fill="#3C58A0"/>
<path d="M152.787 167.494H144.661C143.307 167.494 142.209 166.396 142.209 165.042C142.209 163.688 143.307 162.59 144.661 162.59H152.787C154.141 162.59 155.239 163.688 155.239 165.042C155.239 166.396 154.141 167.494 152.787 167.494Z" fill="#3C58A0"/>
<path d="M139.245 124.416C137.977 124.416 136.723 124.477 135.485 124.591C156.158 126.489 172.35 143.873 172.35 165.042C172.35 186.211 156.158 203.595 135.484 205.493C136.723 205.606 137.977 205.667 139.244 205.667C161.681 205.667 179.87 187.479 179.87 165.042C179.87 142.605 161.682 124.416 139.245 124.416Z" fill="#1886EA"/>
<path d="M139.244 135.25C137.971 135.25 136.717 135.33 135.486 135.485C150.166 137.333 161.521 149.861 161.521 165.042C161.521 180.223 150.166 192.752 135.486 194.599C136.717 194.754 137.971 194.835 139.244 194.835C155.698 194.835 169.036 181.496 169.036 165.042C169.036 148.589 155.698 135.25 139.244 135.25Z" fill="#D3DCFB"/>
<path d="M139.245 170.459C142.237 170.459 144.662 168.034 144.662 165.042C144.662 162.05 142.237 159.625 139.245 159.625C136.253 159.625 133.828 162.05 133.828 165.042C133.828 168.034 136.253 170.459 139.245 170.459Z" fill="#FFDD40"/>
</g>
</g>
<defs>
<clipPath id="clip0_858_180">
<rect width="162.503" height="162.503" fill="white" transform="translate(22.7812 43.165)"/>
</clipPath>
</defs>
</svg>
