<svg width="16" height="19" viewBox="0 0 16 19" fill="none" xmlns="http://www.w3.org/2000/svg">
<path d="M1.616 18.4996C1.15533 18.4996 0.771 18.3456 0.463 18.0376C0.155 17.7296 0.000666667 17.3452 0 16.8846V4.11455C0 3.65455 0.154333 3.27055 0.463 2.96255C0.771667 2.65455 1.156 2.50022 1.616 2.49955H3.385V0.807555C3.385 0.654221 3.43667 0.526221 3.54 0.423555C3.644 0.320221 3.77267 0.268555 3.926 0.268555C4.07933 0.268555 4.207 0.320221 4.309 0.423555C4.411 0.526888 4.462 0.654888 4.462 0.807555V2.49955H11.616V0.769555C11.616 0.627555 11.6637 0.508555 11.759 0.412555C11.855 0.316555 11.974 0.268555 12.116 0.268555C12.258 0.268555 12.3767 0.316555 12.472 0.412555C12.5673 0.508555 12.6153 0.627221 12.616 0.768555V2.49955H14.385C14.845 2.49955 15.2293 2.65389 15.538 2.96255C15.8467 3.27122 16.0007 3.65555 16 4.11555V16.8846C16 17.3446 15.846 17.7289 15.538 18.0376C15.23 18.3462 14.8453 18.5002 14.384 18.4996H1.616ZM1.616 17.4996H14.385C14.5383 17.4996 14.6793 17.4356 14.808 17.3076C14.9367 17.1796 15.0007 17.0382 15 16.8836V8.11555H1V16.8846C1 17.0379 1.064 17.1789 1.192 17.3076C1.32 17.4362 1.461 17.5002 1.615 17.4996M4 10.9996C3.858 10.9996 3.73933 10.9516 3.644 10.8556C3.54867 10.7596 3.50067 10.6406 3.5 10.4986C3.49933 10.3566 3.54733 10.2379 3.644 10.1426C3.74067 10.0472 3.85933 9.99955 4 9.99955H12C12.142 9.99955 12.2607 10.0476 12.356 10.1436C12.4513 10.2396 12.4993 10.3586 12.5 10.5006C12.5007 10.6426 12.4527 10.7612 12.356 10.8566C12.2593 10.9519 12.1407 10.9996 12 10.9996H4ZM4 14.9996C3.858 14.9996 3.73933 14.9516 3.644 14.8556C3.54867 14.7596 3.50067 14.6406 3.5 14.4986C3.49933 14.3566 3.54733 14.2379 3.644 14.1426C3.74067 14.0472 3.85933 13.9996 4 13.9996H9C9.142 13.9996 9.26067 14.0476 9.356 14.1436C9.45133 14.2396 9.49933 14.3586 9.5 14.5006C9.50067 14.6426 9.45267 14.7612 9.356 14.8566C9.25933 14.9519 9.14067 14.9996 9 14.9996H4Z" fill="black"/>
</svg>
