<svg width="22" height="22" viewBox="0 0 22 22" fill="none" xmlns="http://www.w3.org/2000/svg">
<path fill-rule="evenodd" clip-rule="evenodd" d="M2.75 17.375C2.75 17.9717 2.98705 18.544 3.40901 18.966C3.83097 19.3879 4.40326 19.625 5 19.625H17C17.5967 19.625 18.169 19.3879 18.591 18.966C19.0129 18.544 19.25 17.9717 19.25 17.375V5.375C19.25 4.77826 19.0129 4.20597 18.591 3.78401C18.169 3.36205 17.5967 3.125 17 3.125H5C4.40326 3.125 3.83097 3.36205 3.40901 3.78401C2.98705 4.20597 2.75 4.77826 2.75 5.375V17.375ZM5 21.875C3.80653 21.875 2.66193 21.4009 1.81802 20.557C0.974106 19.7131 0.5 18.5685 0.5 17.375V5.375C0.5 4.18153 0.974106 3.03693 1.81802 2.19302C2.66193 1.34911 3.80653 0.875 5 0.875H17C18.1935 0.875 19.3381 1.34911 20.182 2.19302C21.0259 3.03693 21.5 4.18153 21.5 5.375V17.375C21.5 18.5685 21.0259 19.7131 20.182 20.557C19.3381 21.4009 18.1935 21.875 17 21.875H5ZM12.5 15.5C12.5 15.8978 12.342 16.2794 12.0607 16.5607C11.7794 16.842 11.3978 17 11 17C10.6022 17 10.2206 16.842 9.93934 16.5607C9.65804 16.2794 9.5 15.8978 9.5 15.5C9.5 15.1022 9.65804 14.7206 9.93934 14.4393C10.2206 14.158 10.6022 14 11 14C11.3978 14 11.7794 14.158 12.0607 14.4393C12.342 14.7206 12.5 15.1022 12.5 15.5ZM12.125 6.875C12.125 6.57663 12.0065 6.29048 11.7955 6.0795C11.5845 5.86853 11.2984 5.75 11 5.75C10.7016 5.75 10.4155 5.86853 10.2045 6.0795C9.99353 6.29048 9.875 6.57663 9.875 6.875V11.375C9.875 11.6734 9.99353 11.9595 10.2045 12.1705C10.4155 12.3815 10.7016 12.5 11 12.5C11.2984 12.5 11.5845 12.3815 11.7955 12.1705C12.0065 11.9595 12.125 11.6734 12.125 11.375V6.875Z" fill="white"/>
</svg>
