<svg width="35" height="32" viewBox="0 0 35 32" fill="none" xmlns="http://www.w3.org/2000/svg">
<path d="M0.363214 31.9837C0.488623 32.0171 0.621857 31.9987 0.734038 31.9324C0.846218 31.8661 0.928306 31.7574 0.962508 31.6297C1.97112 27.7863 6.07021 26.7901 8.52026 26.1941C9.13424 26.045 9.61897 25.927 9.93428 25.788C12.7251 24.5509 13.6348 22.5606 13.907 21.1085C13.9232 21.0221 13.9168 20.9328 13.8884 20.8498C13.8601 20.7667 13.8108 20.6928 13.7455 20.6354C12.2923 19.3543 11.0663 17.431 10.2927 15.2188C10.2707 15.1554 10.2364 15.0973 10.1918 15.0478C9.16852 13.9116 8.58097 12.7105 8.58097 11.7534C8.58097 11.1943 8.78759 10.8193 9.25273 10.5362C9.3224 10.4937 9.38063 10.4341 9.42217 10.3629C9.4637 10.2917 9.48725 10.211 9.49068 10.1282C9.7071 5.03359 13.2598 1.02312 17.6174 0.997117L17.7222 1.00412C22.1013 1.06612 25.6315 5.1626 25.7578 10.3292C25.7597 10.3998 25.7762 10.4692 25.8062 10.5328C25.8363 10.5964 25.8792 10.6528 25.9321 10.6983C26.2386 10.9633 26.3815 11.2993 26.3815 11.7554C26.3815 12.5565 25.9634 13.5416 25.2055 14.5277C25.169 14.5749 25.1411 14.6284 25.1232 14.6857C24.3398 17.222 22.9337 19.4613 21.267 20.8314C21.1978 20.8882 21.145 20.9632 21.1143 21.0483C21.0836 21.1334 21.0761 21.2254 21.0927 21.3145C21.3649 22.7657 22.2746 24.7549 25.0655 25.994C25.3955 26.1401 25.9076 26.2541 26.5568 26.3971C28.9824 26.9332 33.0413 27.8323 34.0372 31.6297C34.0539 31.6931 34.0827 31.7526 34.1219 31.8047C34.1612 31.8567 34.21 31.9004 34.2658 31.9332C34.3215 31.966 34.383 31.9872 34.4468 31.9957C34.5106 32.0042 34.5754 31.9998 34.6375 31.9827C34.6996 31.9657 34.7578 31.9363 34.8088 31.8962C34.8598 31.8562 34.9026 31.8063 34.9347 31.7493C34.9668 31.6924 34.9876 31.6296 34.9959 31.5644C35.0042 31.4993 34.9999 31.4331 34.9832 31.3697C33.8326 26.9822 29.2341 25.965 26.7644 25.419C26.1916 25.292 25.6971 25.1829 25.4562 25.0749C23.6348 24.2668 22.5126 23.0357 22.116 21.4095C23.8071 19.9263 25.2221 17.6381 26.031 15.0718C26.8898 13.9316 27.3618 12.7575 27.3618 11.7544C27.3618 11.0853 27.1502 10.5272 26.7311 10.0912C26.4981 4.48653 22.5821 0.0730085 17.7222 0.00200023L17.5762 0C12.8044 0.026003 8.87181 4.32351 8.52809 9.83115C7.91509 10.2912 7.60369 10.9363 7.60369 11.7554C7.60369 12.9385 8.2588 14.3537 9.40549 15.6518C10.1977 17.8751 11.4257 19.8283 12.8877 21.1955C12.493 22.8277 11.3698 24.0628 9.54454 24.8719C9.30855 24.9769 8.83851 25.0919 8.29406 25.224C5.80581 25.828 1.17598 26.9532 0.0165644 31.3717C-0.0169192 31.4998 0.000789561 31.6362 0.0657963 31.751C0.130803 31.8658 0.237785 31.9495 0.363214 31.9837Z" fill="black"/>
</svg>
