<svg width="14" height="15" viewBox="0 0 14 15" fill="none" xmlns="http://www.w3.org/2000/svg">
<path fill-rule="evenodd" clip-rule="evenodd" d="M4 3.75C4 2.95435 4.31607 2.19129 4.87868 1.62868C5.44129 1.06607 6.20435 0.75 7 0.75C7.79565 0.75 8.55871 1.06607 9.12132 1.62868C9.68393 2.19129 10 2.95435 10 3.75C10 4.54565 9.68393 5.30871 9.12132 5.87132C8.55871 6.43393 7.79565 6.75 7 6.75C6.20435 6.75 5.44129 6.43393 4.87868 5.87132C4.31607 5.30871 4 4.54565 4 3.75ZM4 8.25C3.00544 8.25 2.05161 8.64509 1.34835 9.34835C0.645088 10.0516 0.25 11.0054 0.25 12C0.25 12.5967 0.487053 13.169 0.90901 13.591C1.33097 14.0129 1.90326 14.25 2.5 14.25H11.5C12.0967 14.25 12.669 14.0129 13.091 13.591C13.5129 13.169 13.75 12.5967 13.75 12C13.75 11.0054 13.3549 10.0516 12.6517 9.34835C11.9484 8.64509 10.9946 8.25 10 8.25H4Z" fill="black"/>
</svg>
