<svg width="18" height="19" viewBox="0 0 18 19" fill="none" xmlns="http://www.w3.org/2000/svg">
<path d="M0 4.25C0 3.25544 0.395088 2.30161 1.09835 1.59835C1.80161 0.895088 2.75544 0.5 3.75 0.5H14.25C15.2446 0.5 16.1984 0.895088 16.9016 1.59835C17.6049 2.30161 18 3.25544 18 4.25V14.75C18 15.7446 17.6049 16.6984 16.9016 17.4016C16.1984 18.1049 15.2446 18.5 14.25 18.5H3.75C2.75544 18.5 1.80161 18.1049 1.09835 17.4016C0.395088 16.6984 0 15.7446 0 14.75V4.25ZM3.75 2C3.15326 2 2.58097 2.23705 2.15901 2.65901C1.73705 3.08097 1.5 3.65326 1.5 4.25V14.75C1.5 15.3467 1.73705 15.919 2.15901 16.341C2.58097 16.7629 3.15326 17 3.75 17H14.25C14.8467 17 15.419 16.7629 15.841 16.341C16.2629 15.919 16.5 15.3467 16.5 14.75V4.25C16.5 3.65326 16.2629 3.08097 15.841 2.65901C15.419 2.23705 14.8467 2 14.25 2H3.75ZM9.75 13.25C9.75 13.0511 9.82902 12.8603 9.96967 12.7197C10.1103 12.579 10.3011 12.5 10.5 12.5H13.875C14.0739 12.5 14.2647 12.579 14.4053 12.7197C14.546 12.8603 14.625 13.0511 14.625 13.25C14.625 13.4489 14.546 13.6397 14.4053 13.7803C14.2647 13.921 14.0739 14 13.875 14H10.5C10.3011 14 10.1103 13.921 9.96967 13.7803C9.82902 13.6397 9.75 13.4489 9.75 13.25ZM10.5 6.5C10.3011 6.5 10.1103 6.57902 9.96967 6.71967C9.82902 6.86032 9.75 7.05109 9.75 7.25C9.75 7.44891 9.82902 7.63968 9.96967 7.78033C10.1103 7.92098 10.3011 8 10.5 8H13.875C14.0739 8 14.2647 7.92098 14.4053 7.78033C14.546 7.63968 14.625 7.44891 14.625 7.25C14.625 7.05109 14.546 6.86032 14.4053 6.71967C14.2647 6.57902 14.0739 6.5 13.875 6.5H10.5ZM8.031 11.219C8.10085 11.2887 8.15626 11.3714 8.19407 11.4626C8.23188 11.5537 8.25134 11.6513 8.25134 11.75C8.25134 11.8487 8.23188 11.9463 8.19407 12.0374C8.15626 12.1286 8.10085 12.2113 8.031 12.281L5.781 14.531C5.71133 14.6008 5.62857 14.6563 5.53745 14.6941C5.44633 14.7319 5.34865 14.7513 5.25 14.7513C5.15135 14.7513 5.05367 14.7319 4.96255 14.6941C4.87143 14.6563 4.78867 14.6008 4.719 14.531L3.597 13.409C3.52727 13.3393 3.47195 13.2565 3.43422 13.1654C3.39648 13.0743 3.37705 12.9766 3.37705 12.878C3.37705 12.7794 3.39648 12.6817 3.43422 12.5906C3.47195 12.4995 3.52727 12.4167 3.597 12.347C3.73783 12.2062 3.92884 12.1271 4.128 12.1271C4.22662 12.1271 4.32427 12.1465 4.41538 12.1842C4.50648 12.222 4.58927 12.2773 4.659 12.347L5.25 12.9395L6.969 11.219C7.03867 11.1492 7.12143 11.0937 7.21255 11.0559C7.30367 11.0181 7.40135 10.9987 7.5 10.9987C7.59865 10.9987 7.69633 11.0181 7.78745 11.0559C7.87857 11.0937 7.96133 11.1492 8.031 11.219ZM8.031 6.281C8.10073 6.21127 8.15605 6.12848 8.19378 6.03738C8.23152 5.94627 8.25095 5.84862 8.25095 5.75C8.25095 5.65138 8.23152 5.55373 8.19378 5.46262C8.15605 5.37152 8.10073 5.28873 8.031 5.219C7.96127 5.14927 7.87848 5.09395 7.78738 5.05621C7.69627 5.01848 7.59862 4.99905 7.5 4.99905C7.40138 4.99905 7.30373 5.01848 7.21262 5.05621C7.12152 5.09395 7.03873 5.14927 6.969 5.219L5.25 6.9395L4.659 6.347C4.51817 6.20617 4.32716 6.12705 4.128 6.12705C3.92884 6.12705 3.73783 6.20617 3.597 6.347C3.45617 6.48783 3.37705 6.67884 3.37705 6.878C3.37705 7.07716 3.45617 7.26817 3.597 7.409L4.719 8.531C4.78867 8.60085 4.87143 8.65626 4.96255 8.69407C5.05367 8.73188 5.15135 8.75134 5.25 8.75134C5.34865 8.75134 5.44633 8.73188 5.53745 8.69407C5.62857 8.65626 5.71133 8.60085 5.781 8.531L8.031 6.281Z" fill="black"/>
</svg>
