<svg width="24" height="19" viewBox="0 0 24 19" fill="none" xmlns="http://www.w3.org/2000/svg">
<path d="M3.6 8.28363C4.92375 8.28363 6 7.19283 6 5.85119C6 4.50955 4.92375 3.41876 3.6 3.41876C2.27625 3.41876 1.2 4.50955 1.2 5.85119C1.2 7.19283 2.27625 8.28363 3.6 8.28363ZM20.4 8.28363C21.7238 8.28363 22.8 7.19283 22.8 5.85119C22.8 4.50955 21.7238 3.41876 20.4 3.41876C19.0763 3.41876 18 4.50955 18 5.85119C18 7.19283 19.0763 8.28363 20.4 8.28363ZM21.6 9.49984H19.2C18.54 9.49984 17.9438 9.76969 17.5088 10.2068C19.02 11.0467 20.0925 12.5632 20.325 14.3647H22.8C23.4638 14.3647 24 13.8212 24 13.1485V11.9323C24 10.5906 22.9238 9.49984 21.6 9.49984ZM12 9.49984C14.3213 9.49984 16.2 7.5957 16.2 5.24308C16.2 2.89047 14.3213 0.986328 12 0.986328C9.67875 0.986328 7.8 2.89047 7.8 5.24308C7.8 7.5957 9.67875 9.49984 12 9.49984ZM14.88 10.7161H14.5688C13.7888 11.0961 12.9225 11.3242 12 11.3242C11.0775 11.3242 10.215 11.0961 9.43125 10.7161H9.12C6.735 10.7161 4.8 12.6772 4.8 15.0944V16.189C4.8 17.1962 5.60625 18.0134 6.6 18.0134H17.4C18.3938 18.0134 19.2 17.1962 19.2 16.189V15.0944C19.2 12.6772 17.265 10.7161 14.88 10.7161ZM6.49125 10.2068C6.05625 9.76969 5.46 9.49984 4.8 9.49984H2.4C1.07625 9.49984 0 10.5906 0 11.9323V13.1485C0 13.8212 0.53625 14.3647 1.2 14.3647H3.67125C3.9075 12.5632 4.98 11.0467 6.49125 10.2068Z" fill="black"/>
</svg>
