<svg width="232" height="311" viewBox="0 0 232 311" fill="none" xmlns="http://www.w3.org/2000/svg">
<path d="M1.36328 3.00391L1.34864 41.1229M1.24616 307.956L1.27221 240.132M1.30472 155.48L79.1998 231.748M1.30472 155.48L1.28966 194.691M1.30472 155.48L40.8055 155.495M1.30472 155.48L40.1162 120.789M1.30472 155.48L1.334 79.242M156.894 155.54L229.845 155.568L197.16 155.555M156.894 155.54L157.138 196.07M156.894 155.54L197.145 196.085M156.894 155.54L193.512 123.486M156.894 155.54L157.167 120.834M157.095 308.016L157.138 196.07M157.095 308.016L79.1998 231.748M157.095 308.016L157.109 270.989M80.3064 155.51L118.715 194.736M80.3064 155.51L79.1998 231.748M80.3064 155.51L40.8055 155.495M80.3064 155.51L116.563 120.818M80.3064 155.51L116.627 155.524M223.992 302.253L194.136 271.762M157.123 233.962L118.715 194.736M157.123 233.962L157.138 196.07M157.123 233.962L194.136 271.762M157.123 233.962L157.109 270.989M229.818 227.055L197.145 196.085M1.27221 240.132L40.0558 278.004M1.27221 240.132L1.2746 233.902L1.28966 194.691M1.27221 240.132L79.1998 231.748M70.7574 307.983L40.0558 278.004M40.0558 278.004L40.0443 307.971M40.0558 278.004L116.582 271.732L118.715 194.736M118.715 194.736L157.138 196.07M1.28966 194.691L40.0878 194.706L40.8055 155.495M197.145 196.085L194.136 271.762M197.145 196.085L229.83 196.098M194.136 271.762L157.109 270.989M193.512 123.486L229.871 88.7939L228.792 89.9382M193.512 123.486L157.167 120.834M193.512 123.486L197.16 155.555M193.512 123.486L228.792 89.9382M157.167 120.834L157.179 88.766L157.182 81.9528M197.16 155.555L116.627 155.524M157.182 81.9528L199.879 40.4244M157.182 81.9528L224.102 15.1789L199.879 40.4244M157.182 81.9528L116.563 120.818M157.182 81.9528L157.197 42.5083M157.182 81.9528L80.0989 80.5913M157.182 81.9528L229.873 81.9807L228.792 89.9382M199.879 40.4244L199.893 3.08015M199.879 40.4244L229.889 40.4359M116.563 120.818L116.627 155.524M116.563 120.818L40.1162 120.789M40.1162 120.789L80.0989 80.5913M40.1162 120.789L39.0026 41.3935M120.082 40.3937L157.212 3.06376L157.197 42.5083M120.082 40.3937L157.197 42.5083M120.082 40.3937L80.0989 80.5913M120.082 40.3937L120.096 3.04951M80.0989 80.5913L76.6712 3.5451L39.0026 41.3935M1.334 79.242L1.34864 41.1229M1.334 79.242L39.0026 41.3935M1.34864 41.1229L39.0026 41.3935" stroke="#F6F6F6" stroke-width="2"/>
</svg>
