<svg width="16" height="16" viewBox="0 0 16 16" fill="none" xmlns="http://www.w3.org/2000/svg">
<g clip-path="url(#clip0_858_246)">
<path fill-rule="evenodd" clip-rule="evenodd" d="M7.26468 4C6.31889 4.00007 5.38684 4.19826 4.54628 4.57803C3.70572 4.95781 2.98102 5.50816 2.43266 6.18316C1.8843 6.85816 1.52817 7.63824 1.39398 8.45833C1.2598 9.27841 1.35145 10.1147 1.66129 10.8975C1.97112 11.6802 2.49017 12.3867 3.17511 12.958C3.86005 13.5293 4.69103 13.9488 5.59872 14.1816C6.50641 14.4144 7.46449 14.4536 8.39302 14.2961C9.32155 14.1386 10.1936 13.7888 10.9364 13.276L13.4848 15.5082C13.6164 15.6195 13.7926 15.6812 13.9756 15.6798C14.1586 15.6784 14.3336 15.6141 14.4629 15.5008C14.5923 15.3874 14.6657 15.2341 14.6673 15.0739C14.6689 14.9136 14.5985 14.7592 14.4714 14.6439L11.9231 12.4117C12.6125 11.6456 13.0418 10.725 13.1618 9.75516C13.2817 8.78534 13.0876 7.80552 12.6015 6.92784C12.1155 6.05016 11.3571 5.31008 10.4133 4.79229C9.4695 4.27451 8.37833 3.99993 7.26468 4ZM2.72906 9.19544C2.72906 8.14174 3.20692 7.1312 4.05751 6.38612C4.90811 5.64104 6.06176 5.22246 7.26468 5.22246C8.4676 5.22246 9.62126 5.64104 10.4719 6.38612C11.3224 7.1312 11.8003 8.14174 11.8003 9.19544C11.8003 10.2491 11.3224 11.2597 10.4719 12.0048C9.62126 12.7498 8.4676 13.1684 7.26468 13.1684C6.06176 13.1684 4.90811 12.7498 4.05751 12.0048C3.20692 11.2597 2.72906 10.2491 2.72906 9.19544Z" fill="#898A8D"/>
</g>
<defs>
<clipPath id="clip0_858_246">
<rect width="16" height="16" fill="white"/>
</clipPath>
</defs>
</svg>
